<?xml version="1.0" encoding="UTF-8"?>
<svg version="1.1" xmlns="http://www.w3.org/2000/svg" width="32" height="32">
<path d="M0 0 C4.23301121 2.82200747 7.17159664 5.95228992 8.8125 10.875 C9.18076224 16.49099916 9.02806007 20.05165989 5.8125 24.875 C1.88016191 28.85031446 -1.33209849 30.75333433 -7 31.125 C-11.71892223 31.03857285 -15.20192669 29.83910765 -18.6328125 26.4453125 C-22.45774286 22.05210677 -23.50490764 18.74295689 -23.3984375 12.9296875 C-22.91258058 8.19708116 -20.67007414 5.09459191 -17.1875 2.0625 C-11.77431523 -1.8846139 -6.19254468 -2.18560401 0 0 Z " fill="#26501D" transform="translate(23.1875,1.125)"/>
<path d="M0 0 C2.97 0.495 2.97 0.495 6 1 C4.35 5.62 2.7 10.24 1 15 C0.67 15 0.34 15 0 15 C0 10.05 0 5.1 0 0 Z " fill="#55B839" transform="translate(16,0)"/>
</svg>
